<?xml version="1.0" encoding="utf-8"?>
<!-- Generator: Adobe Illustrator 18.1.1, SVG Export Plug-In . SVG Version: 6.00 Build 0)  -->
<!DOCTYPE svg PUBLIC "-//W3C//DTD SVG 1.1//EN" "http://www.w3.org/Graphics/SVG/1.1/DTD/svg11.dtd">
<svg version="1.1" xmlns="http://www.w3.org/2000/svg" xmlns:xlink="http://www.w3.org/1999/xlink" x="0px" y="0px"
	 viewBox="0 0 194.4 194.4" enable-background="new 0 0 194.4 194.4" xml:space="preserve">
<g id="house">
	<g id="House">
		<path fill="#414042" d="M133,121.8c0,0-1.5-36-36-36c-36,0-36,36-36,36v72h72V121.8z"/>
		<path d="M99.4,85.9c-0.8,0-1.6-0.1-2.4-0.1c-36,0-36,36-36,36v72h5v-72C66,121.8,66,87.6,99.4,85.9z"/>
		<path fill="#ED1C24" d="M25,96.8v97h36v-72c0,0,0-36,36-36c34.5,0,36,36,36,36v72h36v-97L96,74.3L25,96.8z"/>
		<polygon id="red-top" fill="#ED1C24" points="97,25 25.5,96.5 25.5,96.6 95.5,77.3 168.5,96.6 		"/>
		<path id="shadow" fill="#8B0304" d="M96.8,22.8c-3.4,3.4-72.4,70.7-73.7,72l2.8,2.8c1,1,2.6,1,3.6,0l70.1-70.2
			C99.6,27.4,96.8,24.4,96.8,22.8z"/>
		<path fill="#C49A6C" d="M187,89.6L98.8,1.3c-0.5-0.5-1.2-0.8-1.8-0.7c-0.7,0-1.3,0.2-1.8,0.7L7,89.6c-1,1-1,2.6,0,3.6l9.1,9.1
			c1,1,2.6,1,3.6,0L97,25l77.2,77.2c1,1,2.6,1,3.6,0l9.1-9.1C187.9,92.2,187.9,90.5,187,89.6z"/>
	</g>
</g>
<g id="tail">
	<g id="Tail">
		<path fill="#A46C35" d="M115.9,77.5c-3.9-0.6-4.7,1.1-1.5,3.6c10.4,8.2,17.1,21,17.1,35.3c0,14.1-6.5,26.7-16.7,35
			c0.8-2.8,1-5.9,0.2-9.2c-1.9-7.6-8.5-13.2-16.3-13.8c-10.5-0.7-19.2,7.6-19.2,18c0,8.7,6.7,20.7,29.7,20.7c24.9,0,45-20.1,45-45
			C154.1,99.4,137.6,80.8,115.9,77.5z"/>
		<path fill="#7E5224" d="M115.9,77.5c-1.6-0.2-2.7-0.1-3.2,0.3c20.7,4,36.4,22.3,36.4,44.2c0,24.1-18.9,43.7-42.6,44.9
			c0.9,0,1.7,0.1,2.6,0.1c24.9,0,45-20.1,45-45C154.1,99.4,137.6,80.8,115.9,77.5z"/>
	</g>
</g>
</svg>
